<svg id="facebook-logotype-button" xmlns="http://www.w3.org/2000/svg" width="25.606" height="25.606" viewBox="0 0 25.606 25.606">
  <g id="Group_17" data-name="Group 17">
    <g id="Group_16" data-name="Group 16">
      <path id="Path_1" data-name="Path 1" d="M20.8,0H4.8A4.8,4.8,0,0,0,0,4.8v16a4.8,4.8,0,0,0,4.8,4.8h16a4.8,4.8,0,0,0,4.8-4.8V4.8A4.8,4.8,0,0,0,20.8,0ZM16.112,12.8l-2.1,0,0,7.682H11.134V12.8H9.213V10.156l1.92,0,0-1.559c0-2.16.586-3.474,3.129-3.474h2.119V7.77H15.053c-.991,0-1.039.37-1.039,1.059l0,1.325h2.381Z" fill="#010002"/>
    </g>
  </g>
</svg>
