<svg id="instagram" xmlns="http://www.w3.org/2000/svg" width="25.626" height="25.606" viewBox="0 0 25.626 25.606">
  <g id="Group_26" data-name="Group 26" transform="translate(9.999 9.978)">
    <g id="Group_25" data-name="Group 25">
      <path id="Path_6" data-name="Path 6" d="M201.881,197.779a2.787,2.787,0,0,0-4.552,0,2.887,2.887,0,0,0-.528,1.646,2.8,2.8,0,1,0,5.609,0A2.887,2.887,0,0,0,201.881,197.779Z" transform="translate(-196.8 -196.6)" fill="#010002"/>
    </g>
  </g>
  <g id="Group_28" data-name="Group 28" transform="translate(6.3 11.177)">
    <g id="Group_27" data-name="Group 27">
      <path id="Path_7" data-name="Path 7" d="M134.547,220.2a4,4,0,0,1,.325,1.626,4.369,4.369,0,0,1-8.739,0,3.925,3.925,0,0,1,.325-1.626H124v6.523a1.65,1.65,0,0,0,1.605,1.605h9.8a1.65,1.65,0,0,0,1.605-1.605V220.2Z" transform="translate(-124 -220.2)" fill="#010002"/>
    </g>
  </g>
  <g id="Group_30" data-name="Group 30" transform="translate(16.217 6.645)">
    <g id="Group_29" data-name="Group 29">
      <path id="Path_8" data-name="Path 8" d="M321.557,131.02H319.2v2.7h2.683V131Z" transform="translate(-319.2 -131)" fill="#010002"/>
    </g>
  </g>
  <g id="Group_32" data-name="Group 32" transform="translate(0 0)">
    <g id="Group_31" data-name="Group 31">
      <path id="Path_9" data-name="Path 9" d="M19.184.2H6.422A6.435,6.435,0,0,0,0,6.622V19.4a6.431,6.431,0,0,0,6.422,6.4H19.2a6.435,6.435,0,0,0,6.422-6.422V6.622A6.466,6.466,0,0,0,19.184.2Zm1.544,11.157h0V17.9A2.985,2.985,0,0,1,17.7,20.929h-9.8A2.985,2.985,0,0,1,4.877,17.9v-9.8A2.985,2.985,0,0,1,7.905,5.077h9.8a2.985,2.985,0,0,1,3.028,3.028Z" transform="translate(0 -0.2)" fill="#010002"/>
    </g>
  </g>
</svg>
