<svg id="twitter-logo" xmlns="http://www.w3.org/2000/svg" width="25.606" height="25.606" viewBox="0 0 25.606 25.606">
  <g id="Group_19" data-name="Group 19">
    <g id="Group_18" data-name="Group 18">
      <path id="Path_2" data-name="Path 2" d="M20.8,0H4.8A4.8,4.8,0,0,0,0,4.8v16a4.8,4.8,0,0,0,4.8,4.8h16a4.8,4.8,0,0,0,4.8-4.8V4.8A4.8,4.8,0,0,0,20.8,0ZM19.172,9.929l.01.408a8.964,8.964,0,0,1-13.8,7.552,6.482,6.482,0,0,0,.752.045,6.325,6.325,0,0,0,3.914-1.349A3.157,3.157,0,0,1,7.1,14.4a3.289,3.289,0,0,0,.594.054,3.152,3.152,0,0,0,.831-.109A3.155,3.155,0,0,1,6,11.251v-.04a3.148,3.148,0,0,0,1.428.4A3.157,3.157,0,0,1,6.451,7.4a8.946,8.946,0,0,0,6.5,3.294,3.155,3.155,0,0,1,5.372-2.874,6.383,6.383,0,0,0,2-.765A3.161,3.161,0,0,1,18.937,8.8a6.319,6.319,0,0,0,1.81-.5A6.372,6.372,0,0,1,19.172,9.929Z" fill="#010002"/>
    </g>
  </g>
</svg>
